<?xml version="1.0" encoding="utf-8"?>
<!-- Generator: Adobe Adobe Illustrator 29.2.0, SVG Export Plug-In . SVG Version: 6.00 Build 0)  -->
<svg version="1.1" id="Layer_1" xmlns="http://www.w3.org/2000/svg" xmlns:xlink="http://www.w3.org/1999/xlink" x="0px" y="0px"
	 width="1322.46px" height="1080px" viewBox="0 0 1322.46 1080" style="enable-background:new 0 0 1322.46 1080;"
	 xml:space="preserve">
<g>
	<g>
		<path d="M1308.34,505.97l-94.6-94.6L816.5,14.09c-18.83-18.78-49.28-18.78-68.11,0l-94.6,94.6c-18.78,18.78-18.78,49.28,0,68.11
			l248.22,248.16H45.32c-26.59,0-48.16,21.56-48.16,48.16v133.77c0,26.59,21.56,48.16,48.16,48.16h856.69L653.79,903.2
			c-18.78,18.83-18.78,49.33,0,68.11l94.6,94.6c18.83,18.78,49.28,18.78,68.11,0l397.23-397.28l94.6-94.6
			C1327.17,555.25,1327.17,524.75,1308.34,505.97z"/>
	</g>
</g>
</svg>
