<?xml version="1.0" encoding="utf-8"?>
<!-- Generator: Adobe Adobe Illustrator 29.2.0, SVG Export Plug-In . SVG Version: 6.00 Build 0)  -->
<svg version="1.1" id="Layer_1" xmlns="http://www.w3.org/2000/svg" xmlns:xlink="http://www.w3.org/1999/xlink" x="0px" y="0px"
	 width="1280px" height="720px" viewBox="0 0 1280 720" style="enable-background:new 0 0 1280 720;" xml:space="preserve">
<g>
	<path d="M-0.11,204.39h111.9c26.92,0,47.56,6.64,60.49,18.18c13.64,12.24,19.93,27.28,19.93,46.86c0,25.53-15.74,41.96-39.17,50
		v1.05c27.62,8.04,46.51,31.12,46.51,61.89c0,23.43-7.34,39.51-22.03,52.1c-14.34,12.59-36.37,19.93-62.94,19.93H-0.11V204.39z
		 M105.49,305.1c22.03,0,37.07-10.49,37.07-30.07c0-18.53-13.64-29.37-36.02-29.37H50.59v59.45H105.49z M50.59,412.45h58.4
		c24.48,0,39.17-13.64,39.17-33.92c0-23.78-17.49-36.02-40.56-36.02h-57V412.45z"/>
	<path d="M271.22,303.7h1.05c10.84-20.28,23.08-30.77,44.06-30.77c5.25,0,8.39,0.35,11.19,1.4v41.61h-1.05
		c-31.12-3.15-53.5,13.29-53.5,51.05v87.42h-47.55V275.03h45.81V303.7z"/>
	<path d="M450.24,434.48h-0.7c-9.09,13.64-22.03,24.13-52.8,24.13c-36.72,0-62.59-19.23-62.59-54.9c0-39.51,32.17-52.1,72.03-57.7
		c29.72-4.2,43.36-6.64,43.36-20.28c0-12.94-10.14-21.33-30.07-21.33c-22.38,0-33.22,8.04-34.62,25.18h-42.31
		c1.4-31.47,24.83-59.1,77.28-59.1c53.85,0,75.53,24.13,75.53,66.09v91.27c0,13.64,2.1,21.68,6.29,24.83v1.75h-45.81
		C453.04,450.92,451.29,442.52,450.24,434.48z M450.59,391.12V364.2c-8.39,4.9-21.33,7.69-33.22,10.49
		c-24.83,5.6-37.06,11.19-37.06,27.98c0,16.78,11.19,22.73,27.97,22.73C435.56,425.39,450.59,408.61,450.59,391.12z"/>
	<path d="M571.91,299.5h1.05c12.24-19.23,28.67-29.37,53.15-29.37c37.06,0,61.89,27.97,61.89,67.14v117.14h-47.56V344.26
		c0-19.23-11.19-32.87-31.12-32.87c-20.98,0-36.37,16.79-36.37,41.26v101.76H525.4V275.03h46.51V299.5z"/>
	<path d="M708.62,364.9c0-55.95,31.82-94.76,76.58-94.76c25.17,0,40.91,11.54,50.7,26.58h1.05v-92.32h47.56v250.02h-45.81v-23.43
		h-0.7c-10.49,17.13-28.32,28.67-53.5,28.67C739.39,459.66,708.62,422.94,708.62,364.9z M837.99,365.94
		c0-34.27-11.19-57.35-41.61-57.35c-26.23,0-39.51,23.08-39.51,56.3c0,34.62,13.64,54.9,38.11,54.9
		C823.31,419.8,837.99,398.81,837.99,365.94z"/>
	<path d="M910.36,459.66h47.21c3.85,11.19,13.99,19.93,36.02,19.93c26.92,0,39.86-12.94,39.86-37.42v-19.58h-1.05
		c-10.49,11.89-24.13,20.98-46.86,20.98c-39.86,0-79.03-31.47-79.03-85.67c0-53.5,32.17-87.77,77.63-87.77
		c22.38,0,38.81,8.74,49.66,23.78h0.7v-18.88h45.81v165.75c0,25.18-8.04,42.31-21.33,54.55c-15.04,13.99-38.11,20.28-64.69,20.28
		C945.33,515.61,915.26,494.63,910.36,459.66z M1035.89,356.85c0-26.23-13.99-48.6-42.66-48.6c-24.13,0-40.21,18.88-40.21,48.96
		c0,30.42,16.09,48.25,40.56,48.25C1023.65,405.46,1035.89,383.43,1035.89,356.85z"/>
	<path d="M1102.31,364.55c0-53.15,36.02-94.41,88.47-94.41c57.7,0,88.47,44.06,88.47,108.05h-130.08
		c3.5,27.62,18.88,44.76,45.81,44.76c18.53,0,29.37-8.39,34.62-22.03h46.85c-6.64,31.82-34.97,58.75-81.12,58.75
		C1135.88,459.66,1102.31,418.05,1102.31,364.55z M1149.87,345.31h79.73c-1.4-22.73-16.43-38.47-38.12-38.47
		C1166.31,306.85,1154.07,321.88,1149.87,345.31z"/>
</g>
</svg>
