<?xml version="1.0" encoding="utf-8"?>
<!-- Generator: Adobe Adobe Illustrator 29.2.0, SVG Export Plug-In . SVG Version: 6.00 Build 0)  -->
<svg version="1.1" id="Layer_1" xmlns="http://www.w3.org/2000/svg" xmlns:xlink="http://www.w3.org/1999/xlink" x="0px" y="0px"
	 width="1280px" height="720px" viewBox="0 0 1280 720" style="enable-background:new 0 0 1280 720;" xml:space="preserve">
<style type="text/css">
	.st0{stroke:#000000;stroke-width:26.0153;stroke-miterlimit:10;}
</style>
<g>
	<path d="M-0.11,225.07h97.03c23.35,0,41.24,5.76,52.46,15.77c11.82,10.61,17.28,23.65,17.28,40.63c0,22.13-13.65,36.38-33.96,43.36
		v0.91c23.95,6.97,40.33,26.99,40.33,53.67c0,20.32-6.37,34.26-19.1,45.18c-12.43,10.92-31.53,17.28-54.58,17.28H-0.11V225.07z
		 M91.46,312.4c19.1,0,32.14-9.1,32.14-26.08c0-16.07-11.82-25.47-31.23-25.47H43.86v51.55H91.46z M43.86,405.48h50.64
		c21.23,0,33.96-11.83,33.96-29.41c0-20.62-15.16-31.23-35.17-31.23H43.86V405.48z"/>
	<path d="M235.16,311.18h0.91c9.4-17.59,20.01-26.68,38.2-26.68c4.55,0,7.28,0.3,9.7,1.21v36.08h-0.91
		c-26.99-2.73-46.39,11.52-46.39,44.27v75.8h-41.24V286.32h39.72V311.18z"/>
	<path d="M390.4,424.58h-0.61c-7.89,11.83-19.1,20.92-45.79,20.92c-31.84,0-54.27-16.68-54.27-47.6c0-34.26,27.9-45.18,62.46-50.03
		c25.77-3.64,37.6-5.76,37.6-17.59c0-11.22-8.79-18.5-26.08-18.5c-19.41,0-28.8,6.97-30.02,21.83h-36.69
		c1.21-27.29,21.53-51.24,67.01-51.24c46.69,0,65.49,20.92,65.49,57.31v79.14c0,11.83,1.82,18.8,5.46,21.53v1.52h-39.72
		C392.82,438.83,391.31,431.56,390.4,424.58z M390.7,386.99v-23.35c-7.28,4.25-18.5,6.67-28.81,9.1
		c-21.53,4.85-32.14,9.7-32.14,24.26c0,14.55,9.7,19.71,24.26,19.71C377.66,416.7,390.7,402.15,390.7,386.99z"/>
	<path d="M495.89,307.54h0.91c10.61-16.67,24.86-25.47,46.09-25.47c32.14,0,53.67,24.26,53.67,58.22v101.58h-41.24v-95.51
		c0-16.67-9.7-28.5-26.99-28.5c-18.19,0-31.53,14.56-31.53,35.78v88.23h-41.24V286.32h40.33V307.54z"/>
	<path d="M614.44,364.24c0-48.51,27.59-82.17,66.4-82.17c21.83,0,35.47,10,43.97,23.04h0.91v-80.05h41.24v216.79h-39.72v-20.31
		h-0.61c-9.1,14.86-24.56,24.86-46.39,24.86C641.12,446.41,614.44,414.58,614.44,364.24z M726.62,365.15
		c0-29.71-9.7-49.72-36.08-49.72c-22.74,0-34.26,20.01-34.26,48.82c0,30.02,11.82,47.6,33.05,47.6
		C713.89,411.85,726.62,393.66,726.62,365.15z"/>
	<path d="M789.37,446.41h40.93c3.34,9.7,12.13,17.28,31.23,17.28c23.35,0,34.57-11.22,34.57-32.44v-16.98h-0.91
		c-9.1,10.31-20.92,18.19-40.63,18.19c-34.57,0-68.53-27.29-68.53-74.28c0-46.39,27.9-76.11,67.31-76.11
		c19.41,0,33.66,7.58,43.06,20.62h0.6v-16.37h39.72v143.72c0,21.83-6.97,36.69-18.5,47.3c-13.04,12.13-33.05,17.59-56.09,17.59
		C819.69,494.93,793.62,476.74,789.37,446.41z M898.22,357.27c0-22.74-12.13-42.15-36.99-42.15c-20.92,0-34.87,16.37-34.87,42.45
		c0,26.38,13.95,41.84,35.17,41.84C887.61,399.42,898.22,380.32,898.22,357.27z"/>
	<path d="M955.82,363.94c0-46.09,31.23-81.87,76.71-81.87c50.03,0,76.71,38.2,76.71,93.69H996.45
		c3.03,23.95,16.37,38.81,39.72,38.81c16.07,0,25.47-7.28,30.02-19.1h40.63c-5.76,27.59-30.32,50.94-70.34,50.94
		C984.93,446.41,955.82,410.33,955.82,363.94z M997.05,347.27h69.13c-1.21-19.71-14.25-33.35-33.05-33.35
		C1011.31,313.91,1000.69,326.95,997.05,347.27z"/>
</g>
<line class="st0" x1="1149.76" y1="483.98" x2="1280" y2="483.98"/>
</svg>
